<mxfile host="Electron" modified="2024-02-08T17:32:10.665Z" agent="Mozilla/5.0 (Windows NT 10.0; Win64; x64) AppleWebKit/537.36 (KHTML, like Gecko) draw.io/22.1.18 Chrome/120.0.6099.199 Electron/28.1.2 Safari/537.36" etag="TZgfUoAs2fXBLwavsuX9" version="22.1.18" type="device">
  <diagram id="GRX5f2IKe_jRjbAPhs5a" name="Page-1">
    <mxGraphModel dx="789" dy="1713" grid="0" gridSize="10" guides="1" tooltips="1" connect="1" arrows="1" fold="1" page="1" pageScale="1" pageWidth="1600" pageHeight="1200" math="0" shadow="0">
      <root>
        <mxCell id="0" />
        <mxCell id="1" parent="0" />
        <mxCell id="dRiF5mvPP-Ez4aqjku8g-15" style="edgeStyle=orthogonalEdgeStyle;rounded=0;orthogonalLoop=1;jettySize=auto;html=1;entryX=0.5;entryY=0;entryDx=0;entryDy=0;strokeColor=#000000;" parent="1" source="qBGki6Qu-t18BwJeB7Fz-50" target="qBGki6Qu-t18BwJeB7Fz-52" edge="1">
          <mxGeometry relative="1" as="geometry" />
        </mxCell>
        <mxCell id="qBGki6Qu-t18BwJeB7Fz-50" value="" style="ellipse;html=1;shape=startState;fillColor=#000000;strokeColor=#ff0000;" parent="1" vertex="1">
          <mxGeometry x="740" y="-210" width="30" height="30" as="geometry" />
        </mxCell>
        <mxCell id="qBGki6Qu-t18BwJeB7Fz-52" value="&lt;div&gt;&lt;font style=&quot;font-size: 14px;&quot;&gt;Select media type&lt;/font&gt;&lt;/div&gt;" style="rounded=1;whiteSpace=wrap;html=1;strokeWidth=2;fillColor=#cce5ff;strokeColor=#36393d;" parent="1" vertex="1">
          <mxGeometry x="693.12" y="-120" width="123.75" height="50" as="geometry" />
        </mxCell>
        <mxCell id="qBGki6Qu-t18BwJeB7Fz-57" value="" style="endArrow=classic;html=1;rounded=0;fontSize=10;exitX=0.5;exitY=1;exitDx=0;exitDy=0;entryX=0.5;entryY=0;entryDx=0;entryDy=0;strokeColor=#000000;" parent="1" source="qBGki6Qu-t18BwJeB7Fz-52" target="dRiF5mvPP-Ez4aqjku8g-14" edge="1">
          <mxGeometry width="50" height="50" relative="1" as="geometry">
            <mxPoint x="385" y="-40" as="sourcePoint" />
            <mxPoint x="754.9994444444444" y="-30" as="targetPoint" />
          </mxGeometry>
        </mxCell>
        <mxCell id="qBGki6Qu-t18BwJeB7Fz-58" value="Select Image" style="rounded=1;whiteSpace=wrap;html=1;fillColor=#cce5ff;strokeColor=#36393d;" parent="1" vertex="1">
          <mxGeometry x="585.27" y="95" width="117.5" height="30" as="geometry" />
        </mxCell>
        <mxCell id="qBGki6Qu-t18BwJeB7Fz-59" value="Select Text" style="rounded=1;whiteSpace=wrap;html=1;fillColor=#cce5ff;strokeColor=#36393d;" parent="1" vertex="1">
          <mxGeometry x="816.87" y="95" width="117.5" height="30" as="geometry" />
        </mxCell>
        <mxCell id="dRiF5mvPP-Ez4aqjku8g-18" value="" style="edgeStyle=orthogonalEdgeStyle;rounded=0;orthogonalLoop=1;jettySize=auto;html=1;strokeColor=#000000;" parent="1" source="qBGki6Qu-t18BwJeB7Fz-60" target="qBGki6Qu-t18BwJeB7Fz-74" edge="1">
          <mxGeometry relative="1" as="geometry">
            <mxPoint x="876" y="245" as="targetPoint" />
            <Array as="points">
              <mxPoint x="876" y="261" />
            </Array>
          </mxGeometry>
        </mxCell>
        <mxCell id="qBGki6Qu-t18BwJeB7Fz-60" value="Enter Text&amp;nbsp;" style="rounded=1;whiteSpace=wrap;html=1;fillColor=#cce5ff;strokeColor=#36393d;" parent="1" vertex="1">
          <mxGeometry x="816.87" y="165" width="117.5" height="30" as="geometry" />
        </mxCell>
        <mxCell id="dRiF5mvPP-Ez4aqjku8g-19" value="" style="edgeStyle=orthogonalEdgeStyle;rounded=0;orthogonalLoop=1;jettySize=auto;html=1;strokeColor=#000000;entryX=0;entryY=0.5;entryDx=0;entryDy=0;" parent="1" source="qBGki6Qu-t18BwJeB7Fz-61" target="qBGki6Qu-t18BwJeB7Fz-74" edge="1">
          <mxGeometry relative="1" as="geometry">
            <mxPoint x="643" y="245" as="targetPoint" />
            <Array as="points">
              <mxPoint x="644" y="218" />
              <mxPoint x="643" y="218" />
              <mxPoint x="643" y="261" />
            </Array>
          </mxGeometry>
        </mxCell>
        <mxCell id="qBGki6Qu-t18BwJeB7Fz-61" value="Browse File System&amp;nbsp;" style="rounded=1;whiteSpace=wrap;html=1;fillColor=#cce5ff;strokeColor=#36393d;" parent="1" vertex="1">
          <mxGeometry x="585.27" y="165" width="117.5" height="30" as="geometry" />
        </mxCell>
        <mxCell id="qBGki6Qu-t18BwJeB7Fz-62" value="" style="endArrow=classic;html=1;rounded=0;fontSize=10;exitX=0.5;exitY=1;exitDx=0;exitDy=0;entryX=0.5;entryY=0;entryDx=0;entryDy=0;strokeColor=#000000;" parent="1" source="qBGki6Qu-t18BwJeB7Fz-59" target="qBGki6Qu-t18BwJeB7Fz-60" edge="1">
          <mxGeometry width="50" height="50" relative="1" as="geometry">
            <mxPoint x="401.87" y="15" as="sourcePoint" />
            <mxPoint x="401.88" y="65" as="targetPoint" />
          </mxGeometry>
        </mxCell>
        <mxCell id="qBGki6Qu-t18BwJeB7Fz-63" value="" style="endArrow=classic;html=1;rounded=0;fontSize=10;exitX=0.5;exitY=1;exitDx=0;exitDy=0;strokeColor=#000000;" parent="1" source="qBGki6Qu-t18BwJeB7Fz-58" target="qBGki6Qu-t18BwJeB7Fz-61" edge="1">
          <mxGeometry width="50" height="50" relative="1" as="geometry">
            <mxPoint x="390.27" y="25" as="sourcePoint" />
            <mxPoint x="390.28" y="75" as="targetPoint" />
          </mxGeometry>
        </mxCell>
        <mxCell id="_iKM9taHVbpfhO5j0j6d-6" value="" style="edgeStyle=orthogonalEdgeStyle;rounded=0;orthogonalLoop=1;jettySize=auto;html=1;" edge="1" parent="1" source="qBGki6Qu-t18BwJeB7Fz-74" target="qBGki6Qu-t18BwJeB7Fz-76">
          <mxGeometry relative="1" as="geometry" />
        </mxCell>
        <mxCell id="qBGki6Qu-t18BwJeB7Fz-74" value="&lt;div&gt;Upload Media&lt;/div&gt;" style="rounded=1;whiteSpace=wrap;html=1;fillColor=#cce5ff;strokeColor=#36393d;" parent="1" vertex="1">
          <mxGeometry x="697.62" y="236" width="123.75" height="50" as="geometry" />
        </mxCell>
        <mxCell id="qBGki6Qu-t18BwJeB7Fz-76" value="" style="ellipse;html=1;shape=endState;fillColor=#000000;strokeColor=#ff0000;" parent="1" vertex="1">
          <mxGeometry x="744.5" y="328" width="30" height="30" as="geometry" />
        </mxCell>
        <mxCell id="dRiF5mvPP-Ez4aqjku8g-14" value="&lt;font style=&quot;font-size: 16px;&quot;&gt;check media type&lt;/font&gt;" style="rhombus;whiteSpace=wrap;html=1;fillColor=#FFFFC0;" parent="1" vertex="1">
          <mxGeometry x="694.88" y="-20" width="120.23" height="108" as="geometry" />
        </mxCell>
        <mxCell id="_iKM9taHVbpfhO5j0j6d-1" style="edgeStyle=orthogonalEdgeStyle;rounded=0;orthogonalLoop=1;jettySize=auto;html=1;entryX=0.582;entryY=0.055;entryDx=0;entryDy=0;entryPerimeter=0;" edge="1" parent="1" source="dRiF5mvPP-Ez4aqjku8g-14" target="qBGki6Qu-t18BwJeB7Fz-59">
          <mxGeometry relative="1" as="geometry" />
        </mxCell>
        <mxCell id="_iKM9taHVbpfhO5j0j6d-2" value="Text" style="edgeLabel;html=1;align=center;verticalAlign=middle;resizable=0;points=[];" vertex="1" connectable="0" parent="_iKM9taHVbpfhO5j0j6d-1">
          <mxGeometry x="-0.2178" y="2" relative="1" as="geometry">
            <mxPoint as="offset" />
          </mxGeometry>
        </mxCell>
        <mxCell id="_iKM9taHVbpfhO5j0j6d-3" style="edgeStyle=orthogonalEdgeStyle;rounded=0;orthogonalLoop=1;jettySize=auto;html=1;entryX=0.458;entryY=0.116;entryDx=0;entryDy=0;entryPerimeter=0;" edge="1" parent="1" source="dRiF5mvPP-Ez4aqjku8g-14" target="qBGki6Qu-t18BwJeB7Fz-58">
          <mxGeometry relative="1" as="geometry">
            <Array as="points">
              <mxPoint x="639" y="32" />
            </Array>
          </mxGeometry>
        </mxCell>
        <mxCell id="_iKM9taHVbpfhO5j0j6d-4" value="Image" style="edgeLabel;html=1;align=center;verticalAlign=middle;resizable=0;points=[];" vertex="1" connectable="0" parent="_iKM9taHVbpfhO5j0j6d-3">
          <mxGeometry x="-0.3674" y="2" relative="1" as="geometry">
            <mxPoint x="6" y="-5" as="offset" />
          </mxGeometry>
        </mxCell>
      </root>
    </mxGraphModel>
  </diagram>
</mxfile>
